<?xml version="1.0" encoding="utf-8"?>
<!-- Generator: Adobe Illustrator 19.0.0, SVG Export Plug-In . SVG Version: 6.00 Build 0)  -->
<svg version="1.1"
	 id="svg3026" xmlns:dc="http://purl.org/dc/elements/1.1/" xmlns:cc="http://creativecommons.org/ns#" xmlns:rdf="http://www.w3.org/1999/02/22-rdf-syntax-ns#" xmlns:svg="http://www.w3.org/2000/svg" xmlns:inkscape="http://www.inkscape.org/namespaces/inkscape" xmlns:sodipodi="http://sodipodi.sourceforge.net/DTD/sodipodi-0.dtd" sodipodi:docname="Neutral.svg" inkscape:version="0.48.4 r9939"
	 xmlns="http://www.w3.org/2000/svg" xmlns:xlink="http://www.w3.org/1999/xlink" x="0px" y="0px" viewBox="-182 22 20 20"
	 style="enable-background:new -182 22 20 20;" xml:space="preserve">
<style type="text/css">
	.st0{fill:#C1C1C1;}
</style>
<sodipodi:namedview  inkscape:cy="6.8249439" inkscape:cx="11.841239" inkscape:zoom="26.304372" showgrid="true" guidetolerance="10" gridtolerance="10" objecttolerance="10" borderopacity="1" bordercolor="#666666" pagecolor="#ffffff" id="namedview3034" inkscape:current-layer="g3028" inkscape:window-maximized="1" inkscape:window-height="961" inkscape:window-y="-8" inkscape:window-width="1280" inkscape:pageshadow="2" inkscape:window-x="-8" inkscape:pageopacity="0">
	<inkscape:grid  type="xygrid" id="grid3040"></inkscape:grid>
</sodipodi:namedview>
<g id="g3028">
	<path id="path4003" inkscape:connector-curvature="0" class="st0" d="M-180.3,32c0,0.8,0.1,1.5,0.3,2.2c0.2,0.7,0.5,1.4,0.8,2
		c0.4,0.6,0.8,1.2,1.3,1.7c0.5,0.5,1.1,0.9,1.7,1.3c0.6,0.4,1.3,0.6,2,0.8c0.7,0.2,1.4,0.3,2.2,0.3c0.8,0,1.5-0.1,2.2-0.3
		c0.7-0.2,1.4-0.5,2-0.8c0.6-0.4,1.2-0.8,1.7-1.3c0.5-0.5,0.9-1.1,1.3-1.7c0.4-0.6,0.6-1.3,0.8-2c0.2-0.7,0.3-1.4,0.3-2.2
		c0-0.8-0.1-1.5-0.3-2.2c-0.2-0.7-0.5-1.4-0.8-2s-0.8-1.2-1.3-1.7c-0.5-0.5-1.1-0.9-1.7-1.3c-0.6-0.4-1.3-0.6-2-0.8
		c-0.7-0.2-1.4-0.3-2.2-0.3c-0.8,0-1.5,0.1-2.2,0.3c-0.7,0.2-1.4,0.5-2,0.8c-0.6,0.4-1.2,0.8-1.7,1.3c-0.5,0.5-0.9,1.1-1.3,1.7
		c-0.4,0.6-0.6,1.3-0.8,2C-180.2,30.5-180.3,31.2-180.3,32z M-177.5,32L-177.5,32l4-4.2h2.9l-3.1,3.1h6.7v2.2h-6.7l3.1,3.1h-2.9
		L-177.5,32z M-182,32c0-0.9,0.1-1.8,0.4-2.6c0.2-0.8,0.6-1.6,1-2.4c0.4-0.7,1-1.4,1.6-2c0.6-0.6,1.3-1.1,2-1.6
		c0.7-0.4,1.5-0.8,2.4-1c0.8-0.2,1.7-0.4,2.6-0.4c0.9,0,1.8,0.1,2.6,0.4c0.8,0.2,1.6,0.6,2.4,1c0.7,0.4,1.4,1,2,1.6s1.1,1.3,1.6,2
		c0.4,0.7,0.8,1.5,1,2.4c0.2,0.8,0.4,1.7,0.4,2.6c0,0.9-0.1,1.8-0.4,2.6c-0.2,0.8-0.6,1.6-1,2.4c-0.4,0.7-1,1.4-1.6,2
		c-0.6,0.6-1.3,1.1-2,1.6c-0.7,0.4-1.5,0.8-2.4,1c-0.8,0.2-1.7,0.4-2.6,0.4c-0.9,0-1.8-0.1-2.6-0.4c-0.8-0.2-1.6-0.6-2.4-1
		c-0.7-0.4-1.4-1-2-1.6c-0.6-0.6-1.1-1.3-1.6-2c-0.4-0.7-0.8-1.5-1-2.4C-181.9,33.8-182,32.9-182,32z"/>
</g>
</svg>
