<?xml version="1.0" encoding="utf-8"?>
<!-- Generator: Adobe Illustrator 19.0.0, SVG Export Plug-In . SVG Version: 6.00 Build 0)  -->
<svg version="1.1" xmlns="http://www.w3.org/2000/svg" xmlns:xlink="http://www.w3.org/1999/xlink" x="0px" y="0px"
	 viewBox="-174 14 36 36" style="enable-background:new -174 14 36 36;" xml:space="preserve">
<style type="text/css">
	.st0{display:none;}
	.st1{display:inline;}
	.st2{fill:#FFFFFF;stroke:#000000;stroke-miterlimit:10;}
</style>
<g id="Layer_1" class="st0">
	<g id="search_1_" class="st1">
		<g id="search">
			<path d="M-138.5,45.2l-8.9-8.9c1.4-2.2,2.3-4.9,2.3-7.8c0-7.9-6.4-14.3-14.3-14.3c-7.9,0-14.3,6.4-14.3,14.3
				c0,7.9,6.4,14.3,14.3,14.3c2.9,0,5.5-0.8,7.8-2.3l8.9,8.9c0.3,0.3,0.8,0.3,1.1,0l3.2-3.2C-138.2,46-138.2,45.5-138.5,45.2z
				 M-169.2,28.6c0-5.4,4.4-9.8,9.8-9.8c5.4,0,9.8,4.4,9.8,9.8c0,5.4-4.4,9.8-9.8,9.8C-164.8,38.4-169.2,34-169.2,28.6z"/>
		</g>
	</g>
</g>
<g id="Layer_2">
	<polygon class="st2" points="-173.7,28.7 -173.7,28.5 -160.2,14.4 -150.4,14.4 -160.7,24.9 -138.3,24.9 -138.3,32.3 -160.7,32.3 
		-150.4,42.8 -160.2,42.8 	"/>
</g>
</svg>
