<?xml version="1.0" encoding="utf-8"?>
<!-- Generator: Adobe Illustrator 19.0.0, SVG Export Plug-In . SVG Version: 6.00 Build 0)  -->
<svg version="1.1" id="Layer_1" xmlns="http://www.w3.org/2000/svg" xmlns:xlink="http://www.w3.org/1999/xlink" x="0px" y="0px"
	 viewBox="-174 14 36 36" style="enable-background:new -174 14 36 36;" xml:space="preserve">
<style type="text/css">
	.st0{display:none;}
	.st1{display:inline;}
	.st2{fill:#1A1A1A;}
</style>
<g id="search_1_" class="st0">
	<g id="search" class="st1">
		<path d="M-138.5,45.2l-8.9-8.9c1.4-2.2,2.3-4.9,2.3-7.8c0-7.9-6.4-14.3-14.3-14.3c-7.9,0-14.3,6.4-14.3,14.3
			c0,7.9,6.4,14.3,14.3,14.3c2.9,0,5.5-0.8,7.8-2.3l8.9,8.9c0.3,0.3,0.8,0.3,1.1,0l3.2-3.2C-138.2,46-138.2,45.5-138.5,45.2z
			 M-169.2,28.6c0-5.4,4.4-9.8,9.8-9.8c5.4,0,9.8,4.4,9.8,9.8c0,5.4-4.4,9.8-9.8,9.8C-164.8,38.4-169.2,34-169.2,28.6z"/>
	</g>
</g>
<g id="g3028">
	<path id="path4003" class="st2" d="M-171.2,28.6c0,1.1,0.1,2.1,0.4,3.1c0.3,1,0.7,1.9,1.2,2.8
		c0.5,0.9,1.1,1.7,1.8,2.4c0.7,0.7,1.5,1.3,2.4,1.9c0.9,0.5,1.8,0.9,2.8,1.2c1,0.3,2.1,0.4,3.1,0.4c1.1,0,2.1-0.1,3.1-0.4
		c1-0.3,1.9-0.7,2.8-1.2c0.9-0.5,1.7-1.1,2.4-1.9c0.7-0.7,1.3-1.5,1.9-2.4c0.5-0.9,0.9-1.8,1.2-2.8c0.3-1,0.4-2,0.4-3.1
		c0-1.1-0.1-2.1-0.4-3.1c-0.3-1-0.7-1.9-1.2-2.8c-0.5-0.9-1.1-1.7-1.9-2.4s-1.5-1.3-2.4-1.9c-0.9-0.5-1.8-0.9-2.8-1.2
		c-1-0.3-2-0.4-3.1-0.4c-1.1,0-2.1,0.1-3.1,0.4c-1,0.3-2,0.7-2.8,1.2c-0.9,0.5-1.7,1.1-2.4,1.8c-0.7,0.7-1.3,1.5-1.8,2.4
		c-0.5,0.9-0.9,1.8-1.2,2.8C-171.1,26.5-171.2,27.5-171.2,28.6z M-167.3,28.6L-167.3,28.6l5.8-6.1h4.2l-4.4,4.5h9.6v3.1h-9.6
		l4.4,4.5h-4.2L-167.3,28.6z M-173.7,28.6c0-1.3,0.2-2.6,0.5-3.8c0.3-1.2,0.8-2.3,1.5-3.4c0.6-1.1,1.4-2,2.3-2.9
		c0.9-0.9,1.8-1.6,2.9-2.3c1.1-0.6,2.2-1.1,3.4-1.5c1.2-0.3,2.5-0.5,3.8-0.5c1.3,0,2.6,0.2,3.8,0.5c1.2,0.3,2.4,0.8,3.4,1.4
		c1.1,0.6,2,1.4,2.9,2.2c0.9,0.9,1.6,1.8,2.3,2.9s1.1,2.2,1.5,3.4c0.3,1.2,0.5,2.5,0.5,3.8c0,1.3-0.2,2.6-0.5,3.8
		c-0.3,1.2-0.8,2.4-1.5,3.4c-0.6,1.1-1.4,2-2.3,2.9c-0.9,0.9-1.8,1.6-2.9,2.3c-1.1,0.6-2.2,1.1-3.4,1.5c-1.2,0.3-2.5,0.5-3.8,0.5
		c-1.3,0-2.6-0.2-3.8-0.5c-1.2-0.3-2.4-0.8-3.4-1.5c-1.1-0.6-2-1.4-2.9-2.3c-0.9-0.9-1.6-1.8-2.3-2.9c-0.6-1.1-1.1-2.2-1.5-3.4
		C-173.6,31.1-173.7,29.9-173.7,28.6z"/>
</g>
</svg>
