<?xml version="1.0" encoding="utf-8"?>
<!-- Generator: Adobe Illustrator 19.0.0, SVG Export Plug-In . SVG Version: 6.00 Build 0)  -->
<svg version="1.1"
	 id="Layer_1" xmlns:sodipodi="http://sodipodi.sourceforge.net/DTD/sodipodi-0.dtd" xmlns:dc="http://purl.org/dc/elements/1.1/" xmlns:svg="http://www.w3.org/2000/svg" xmlns:rdf="http://www.w3.org/1999/02/22-rdf-syntax-ns#" xmlns:inkscape="http://www.inkscape.org/namespaces/inkscape" xmlns:cc="http://creativecommons.org/ns#"
	 xmlns="http://www.w3.org/2000/svg" xmlns:xlink="http://www.w3.org/1999/xlink" x="0px" y="0px" viewBox="77 -5 260 260"
	 style="enable-background:new 77 -5 260 260;" xml:space="preserve">
<style type="text/css">
	.st0{fill:none;stroke:#379AD6;stroke-width:10;}
	.st1{fill:#379AD6;}
	.st2{fill:#FFFFFF;}
</style>
<g id="g3021">
	<path id="path2989" class="st0" d="M332,125c0,69-56,125-125,125S82,194,82,125S138,0,207,0S332,56,332,125z"/>
	<g id="g3015">
		<polygon id="polygon3962" class="st1" points="251.5,189.8 261.8,78.5 152.2,78.5 162.5,189.8 207,201.7 		"/>
		<polygon id="polygon3968" class="st1" points="243.1,182.5 251.4,87.5 207,87.5 207,192.2 207.1,192.2 		"/>
		<path id="path4016" class="st1" d="M174.5,68.7h16.9v-6.6h-9.7v-6.6h9.7v-7.2h-16.9V68.7z M198.6,55.5c2.3,2.3,3.4,3.3,6.7,6.6
			c-1.9,0-6.7,0-6.7,0v6.6h16.9v-6.6l-6.8-6.6h6.8v-7.2h-16.9C198.6,48.3,198.6,51.9,198.6,55.5z M239.5,48.3h-16.9c0,0,0,3.6,0,7.2
			c2.3,2.3,3.4,3.3,6.7,6.6c-1.9,0-6.7,0-6.7,0v6.6h16.9v-6.6l-6.8-6.6h6.8V48.3z"/>
		<path id="path4169" class="st2" d="M172.2,100.9l2,13.6l34.6-0.2l-33.4,14.1l0.9,13.4h47.3l-1.1,17.7l-15.2,4.6l-15.4-4.2
			l-0.9-10.6h-13.6l1.7,20.8l27.8,8.1l28.3-7.8l3.5-42h-32l33.2-14.1l1-13.4L172.2,100.9z"/>
	</g>
</g>
<g id="Layer_1_1_">
</g>
</svg>
