<?xml version="1.0" encoding="utf-8"?>
<!-- Generator: Adobe Illustrator 19.0.0, SVG Export Plug-In . SVG Version: 6.00 Build 0)  -->
<svg version="1.1"
	 id="Layer_1" xmlns:sodipodi="http://sodipodi.sourceforge.net/DTD/sodipodi-0.dtd" xmlns:dc="http://purl.org/dc/elements/1.1/" xmlns:svg="http://www.w3.org/2000/svg" xmlns:rdf="http://www.w3.org/1999/02/22-rdf-syntax-ns#" xmlns:inkscape="http://www.inkscape.org/namespaces/inkscape" xmlns:cc="http://creativecommons.org/ns#"
	 xmlns="http://www.w3.org/2000/svg" xmlns:xlink="http://www.w3.org/1999/xlink" x="0px" y="0px" viewBox="82 0 250 250"
	 style="enable-background:new 82 0 250 250;" xml:space="preserve">
<style type="text/css">
	.st0{fill:#379AD6;}
	.st1{fill:#FFFFFF;}
</style>
<g id="g2990">
	<path id="path2989" class="st0" d="M332,125c0,69-56,125-125,125S82,194,82,125S138,0,207,0S332,56,332,125z"/>
	<g id="g3015">
		<polygon id="polygon3962" class="st1" points="250.6,188.5 260.7,79.4 153.3,79.4 163.4,188.5 207,200.2 		"/>
		<polygon id="polygon3968" class="st1" points="242.4,181.4 250.6,88.2 207,88.2 207,190.9 207.1,190.9 		"/>
		<path id="path4016" class="st1" d="M175.1,69.8h16.6v-6.5h-9.5v-6.5h9.5v-7.1h-16.6V69.8z M198.8,56.9c2.2,2.2,3.4,3.3,6.6,6.5
			c-1.9,0-6.6,0-6.6,0v6.5h16.6v-6.5l-6.6-6.5h6.6v-7.1h-16.6C198.8,49.8,198.8,53.3,198.8,56.9z M238.9,49.8h-16.6c0,0,0,3.6,0,7.1
			c2.2,2.2,3.4,3.3,6.6,6.5c-1.9,0-6.6,0-6.6,0v6.5h16.6v-6.5l-6.6-6.5h6.6V49.8z"/>
		<path id="path4169" class="st0" d="M172.9,101.4l2,13.3l33.9-0.2L176,128.3l0.9,13.2h46.4l-1.1,17.3l-14.9,4.5l-15.1-4.2
			l-0.9-10.4H178l1.7,20.4l27.2,7.9l27.7-7.7l3.4-41.1h-31.4l32.6-13.8l1-13.2L172.9,101.4z"/>
	</g>
</g>
<g id="Layer_1_1_">
</g>
</svg>
