<?xml version="1.0" encoding="utf-8"?>
<!-- Generator: Adobe Illustrator 19.0.0, SVG Export Plug-In . SVG Version: 6.00 Build 0)  -->
<svg version="1.1" id="Layer_1" xmlns="http://www.w3.org/2000/svg" xmlns:xlink="http://www.w3.org/1999/xlink" x="0px" y="0px"
	 viewBox="-311.4 390 232.8 250" style="enable-background:new -311.4 390 232.8 250;" xml:space="preserve">
<style type="text/css">
	.st0{fill:#DD0031;}
	.st1{fill:#C3002F;}
	.st2{fill:#FFFFFF;}
</style>
<g>
	<polygon class="st0" points="-195,390 -195,390 -195,390 -311.4,431.5 -293.6,585.4 -195,640 -195,640 -195,640 -96.4,585.4 
		-78.6,431.5 	"/>
	<polygon class="st1" points="-195,390 -195,417.8 -195,417.6 -195,544.3 -195,544.3 -195,640 -195,640 -96.4,585.4 -78.6,431.5 	
		"/>
	<path class="st2" d="M-195,417.6l-72.8,163.1l0,0h27.1l0,0l14.6-36.5h61.8l14.6,36.5l0,0h27.1l0,0L-195,417.6L-195,417.6
		L-195,417.6L-195,417.6L-195,417.6z M-173.8,521.8h-42.5l21.3-51.1L-173.8,521.8z"/>
</g>
</svg>
