<?xml version="1.0" encoding="utf-8"?>
<!-- Generator: Adobe Illustrator 19.0.0, SVG Export Plug-In . SVG Version: 6.00 Build 0)  -->
<svg version="1.1" id="Lager_1" xmlns="http://www.w3.org/2000/svg" xmlns:xlink="http://www.w3.org/1999/xlink" x="0px" y="0px"
	 viewBox="-302 1 250 250" style="enable-background:new -302 1 250 250;" xml:space="preserve">
<style type="text/css">
	.st0{fill:#46483E;}
	.st1{fill:#81CF08;}
</style>
<path class="st0" d="M-177,1c-69,0-125,56-125,125s56,125,125,125s125-56,125-125S-108,1-177,1z"/>
<g>
	<path class="st1" d="M-177,205.8c-2.3,0-4.3-0.5-6.3-1.7l-19.5-11.5c-3-1.7-1.5-2.3-0.5-2.5c4-1.5,4.8-1.7,8.8-4
		c0.5-0.2,1-0.2,1.5,0.3l15,9c0.5,0.2,1.3,0.2,1.7,0l58.5-33.8c0.5-0.3,1-1,1-1.5V92.5c0-0.8-0.3-1.3-1-1.5L-176,57
		c-0.5-0.2-1.3-0.2-1.8,0l-58.5,33.5c-0.5,0.2-1,1-1,1.5v67.5c0,0.5,0.2,1.3,1,1.5l16,9.2c8.8,4.3,14-0.8,14-6V98
		c0-1,0.8-1.8,1.8-1.8h7.5c1,0,1.8,0.7,1.8,1.8v66.5c0,11.8-6.3,18.3-17.3,18.3c-3.5,0-6,0-13.5-3.8l-15.3-8.8
		c-3.8-2.3-6.3-6.3-6.3-10.8V92c0-4.3,2.3-8.5,6.3-10.7l58.5-33.8c3.8-2,8.8-2,12.3,0l58.5,33.8c3.8,2.3,6.3,6.3,6.3,10.7v67.5
		c0,4.3-2.3,8.5-6.3,10.8l-58.8,34C-172.8,205.3-174.8,205.8-177,205.8z"/>
	<path class="st1" d="M-158.8,159.3c-25.5,0-31-11.7-31-21.5c0-1,0.8-1.8,1.8-1.8h7.5c0.8,0,1.5,0.5,1.8,1.5c1,7.8,4.5,11.5,20,11.5
		c12.3,0,17.5-2.8,17.5-9.3c0-3.8-1.5-6.5-20.8-8.5c-16-1.5-26-5-26-18c0-11.8,10-18.8,26.7-18.8c18.8,0,28,6.5,29.3,20.5
		c0,0.5-0.3,1-0.5,1.3c-0.2,0.3-0.8,0.5-1.3,0.5h-7.5c-0.8,0-1.5-0.5-1.7-1.3c-1.8-8-6.3-10.8-18.3-10.8c-13.5,0-15,4.8-15,8.3
		c0,4.3,1.8,5.5,20,8c18,2.3,26.5,5.8,26.5,18.3C-129.8,152-140.3,159.3-158.8,159.3z"/>
</g>
</svg>
