<?xml version="1.0" encoding="utf-8"?>
<!-- Generator: Adobe Illustrator 19.0.0, SVG Export Plug-In . SVG Version: 6.00 Build 0)  -->
<svg version="1.1"
	 id="svg5381" sodipodi:docname="php.svg" inkscape:version="0.91 r13725" xmlns:sodipodi="http://sodipodi.sourceforge.net/DTD/sodipodi-0.dtd" xmlns:dc="http://purl.org/dc/elements/1.1/" xmlns:svg="http://www.w3.org/2000/svg" xmlns:rdf="http://www.w3.org/1999/02/22-rdf-syntax-ns#" xmlns:inkscape="http://www.inkscape.org/namespaces/inkscape" xmlns:cc="http://creativecommons.org/ns#"
	 xmlns="http://www.w3.org/2000/svg" xmlns:xlink="http://www.w3.org/1999/xlink" x="0px" y="0px" viewBox="2294.1 -0.3 480.3 250"
	 style="enable-background:new 2294.1 -0.3 480.3 250;" xml:space="preserve">
<style type="text/css">
	.st0{fill:#FFFFFF;}
	.st1{fill:#9999CC;}
	.st2{fill:#232531;}
</style>
<sodipodi:namedview  inkscape:window-width="1451" fit-margin-bottom="0" inkscape:window-height="722" inkscape:pageshadow="2" inkscape:pageopacity="0" fit-margin-right="0" inkscape:window-maximized="0" inkscape:window-x="0" inkscape:current-layer="svg5381" inkscape:window-y="27" inkscape:cx="1420.2787" inkscape:zoom="0.1292" borderopacity="1" guidetolerance="10" inkscape:cy="735.50513" fit-margin-top="0" fit-margin-left="0" bordercolor="#666666" gridtolerance="10" pagecolor="#ffffff" showgrid="false" id="namedview5389" objecttolerance="10">
	</sodipodi:namedview>
<ellipse id="ellipse5937" class="st0" cx="2534.3" cy="124.7" rx="240.1" ry="125"/>
<ellipse id="ellipse5385" class="st1" cx="2534.3" cy="124.7" rx="211.3" ry="110"/>
<path id="path5387" inkscape:connector-curvature="0" class="st2" d="M2382.3,189.8l23.2-117.3h53.6c23.2,1.4,34.7,13,34.7,33.3
	c0,34.7-27.5,55-52.1,53.6h-26.1l-5.8,30.4L2382.3,189.8L2382.3,189.8z M2488.4,159.4l23.2-117.3h27.5l-5.8,30.4h26.1
	c23.2,1.4,31.8,13,29,27.5l-10.1,59.3h-29l10.1-53.6c1.4-7.2,1.4-11.6-8.7-11.6h-21.7l-13,65.1L2488.4,159.4L2488.4,159.4z
	 M2576.3,189.8l23.2-117.3h53.6c23.2,1.4,34.7,13,34.7,33.3c0,34.7-27.5,55-52.1,53.6h-26.1l-5.8,30.4H2576.3L2576.3,189.8z"/>
<g id="XMLID_2_">
	<g>
		<path class="st1" d="M2447.4,94.3c10.1,0,17.4,4.3,17.4,13c-1.4,24.6-13,28.9-26,30.4h-17.4l7.2-43.4H2447.4z"/>
	</g>
	<g>
	</g>
</g>
<g id="XMLID_1_">
	<g>
		<path class="st1" d="M2641.4,94.3c10.1,0,17.4,4.3,17.4,13c-1.4,24.6-13,28.9-26.1,30.4h-17.4l7.2-43.4H2641.4z"/>
	</g>
	<g>
	</g>
</g>
</svg>
