<?xml version="1.0" encoding="utf-8"?>
<!-- Generator: Adobe Illustrator 19.0.0, SVG Export Plug-In . SVG Version: 6.00 Build 0)  -->
<svg version="1.1" id="Layer_1" xmlns="http://www.w3.org/2000/svg" xmlns:xlink="http://www.w3.org/1999/xlink" x="0px" y="0px"
	 viewBox="-527.5 39.4 250 250" style="enable-background:new -527.5 39.4 250 250;" xml:space="preserve">
<style type="text/css">
	.st0{fill:#F4C939;}
	.st1{fill:#997B27;stroke:#F4C939;stroke-miterlimit:10;}
	.st2{fill:#FFFFFF;}
</style>
<g id="bg">
	<path class="st0" d="M-284.5,264.3c-2.6-26.5-2.8-53.2-0.2-79.7c2.6-26.1,9.8-51.5,4.8-77.5c-0.4-1.7-1.1-3.3-2-4.3
		c-0.2-6.3-0.2-12.6,0-19.1c0.4-8,3.3-17.8,1.3-25.6c-1.7-6.7-7.2-9.3-13.5-10c-11.1-1.1-22.6-0.2-33.7-0.2c-1.5,0-3,0.2-4.1,0.7
		c-1.3-0.7-3-1.1-5-1.1c-55.2-0.2-110.3-0.2-165.3-0.4c-4.3-1.5-9.8-0.9-13,4.3c-3.5,5.4-6.7,10.9-8.5,16.9
		c-2.2,6.7-2.2,13.7-2,20.6c0,4.8,2.6,7.8,6.1,9.3c1.5,56.7,1.7,113.6,0.7,170.3c0,4.1,1.7,7,4.3,8.7c1.5,2.4,4.1,4.1,7.8,4.3
		c1.7,1.7,4.1,2.8,7.2,2.8h204.6c8.9,0,12.2-8.9,9.8-15.2C-284.7,267.7-284.3,266.2-284.5,264.3z"/>
</g>
<g id="rivets">
	<ellipse class="st1" cx="-500.6" cy="66.6" rx="9.1" ry="10.4"/>
	<ellipse class="st1" cx="-304.3" cy="65.7" rx="9.1" ry="10.4"/>
	<ellipse class="st1" cx="-304.3" cy="263" rx="9.1" ry="10.4"/>
	<ellipse class="st1" cx="-500.6" cy="263" rx="9.1" ry="10.4"/>
</g>
<g id="question-mark">
	<path class="st2" d="M-326.9,156.5c-1.7,1.7-16.7,16.9-18.5,18.7h-29.3h-1.3l-0.9,0.9l-5.2,5.2c-0.2,0.2-1.1,1.1-1.1,1.1
		s0,0.9,0,1.3v23h-38.7v-35.4c1.7-1.7,16.7-16.9,18.2-18.7h29.3c0.4,0,1.3,0,1.3,0s0.7-0.7,1.1-0.9l5.2-5.2c0.2-0.2,0.9-1.1,0.9-1.1
		s0-0.9,0-1.3v-30.6c0-0.4,0-1.3,0-1.3s-0.7-0.7-1.1-1.1l-5.2-5.2c-0.2-0.2-1.1-0.9-1.1-0.9s-0.9,0-1.3,0h-56.7c-1.3,0-1.1,0-1.3,0
		c0,0-0.7,0.7-1.1,0.9l-5.2,5.2c-0.2,0.2-1.1,1.1-1.1,1.1s0,0.9,0,1.3v27.6h-38.7V102c1.7-1.7,17.2-17.8,18.9-19.5h113.4
		c1.7,1.7,17.2,17.8,18.9,19.5L-326.9,156.5L-326.9,156.5z"/>
	<rect x="-421.8" y="229.9" class="st2" width="38.7" height="22.6"/>
</g>
<g id="Layer_1_1_">
	<path d="M-326.9,156.3c-1.7,1.7-16.7,16.9-18.5,18.7h-29.3h-1.3l-0.9,0.9l-5.2,5.2c-0.2,0.2-1.1,1.1-1.1,1.1s0,0.9,0,1.3v23h-38.7
		v-35.4c1.7-1.7,16.7-16.9,18.2-18.7h29.3c0.4,0,1.3,0,1.3,0s0.7-0.7,1.1-0.9l5.2-5.2c0.2-0.2,0.9-1.1,0.9-1.1s0-0.9,0-1.3v-30.6
		c0-0.4,0-1.3,0-1.3s-0.7-0.7-1.1-1.1l-5-5.2c-0.2-0.2-1.1-0.9-1.1-0.9s-0.9,0-1.3,0h-56.7c-1.3,0-1.1,0-1.3,0c0,0-0.7,0.7-1.1,0.9
		l-5.2,5.2c-0.2,0.2-1.1,1.1-1.1,1.1s0,0.9,0,1.3v27.6h-38.7v-39.1c1.7-1.7,17.2-17.8,18.9-19.5H-346c1.7,1.7,17.2,17.8,18.9,19.5
		L-326.9,156.3L-326.9,156.3z M-341.8,76.4c-0.7-0.7-1.5-1.1-2.4-1.1h-116.4c-0.9,0-1.7,0.4-2.4,1.1l-20.9,21.5
		c-0.7,0.7-0.9,1.5-0.9,2.4v43.9c0,2,1.5,3.3,3.3,3.3h45.4c2,0,3.3-1.5,3.3-3.3v-29.5c1.1-1.1,2.4-2.2,3.3-3.3h54.1
		c1.1,1.1,2.4,2.2,3.3,3.3v27.8c-1.1,1.1-2.4,2.4-3.3,3.3h-29.3c-0.9,0-1.7,0.4-2.4,1.1l-20.2,20.6c-0.7,0.7-0.9,1.5-0.9,2.4V210
		c0,2,1.5,3.3,3.3,3.3h45.4c2,0,3.3-1.5,3.3-3.3v-25c1.1-1.1,2.4-2.4,3.3-3.3h29.3c0.9,0,1.7-0.4,2.4-1.1L-321,160
		c0.7-0.7,0.9-1.5,0.9-2.4v-57.3c0-0.9-0.4-1.7-0.9-2.4L-341.8,76.4z M-383.1,252.5h-38.7v-22.6h38.7V252.5z M-379.9,223.2h-45.4
		c-2,0-3.3,1.5-3.3,3.3v29.3c0,2,1.5,3.3,3.3,3.3h45.4c2,0,3.3-1.5,3.3-3.3v-29.3C-376.4,224.7-377.9,223.2-379.9,223.2
		L-379.9,223.2z M-304.3,269.3c-3.5,0-6.3-2.8-6.3-6.3c0-3.5,2.8-6.3,6.3-6.3c3.5,0,6.3,2.8,6.3,6.3
		C-298,266.4-300.8,269.3-304.3,269.3L-304.3,269.3z M-304.3,251.4c-6.3,0-11.5,5.2-11.5,11.5c0,6.3,5.2,11.5,11.5,11.5
		c6.3,0,11.5-5.2,11.5-11.5C-292.8,256.7-298,251.4-304.3,251.4L-304.3,251.4z M-304.3,72c-3.5,0-6.3-2.8-6.3-6.3
		c0-3.5,2.8-6.3,6.3-6.3c3.5,0,6.3,2.8,6.3,6.3C-297.7,69.2-300.8,72-304.3,72L-304.3,72z M-304.3,54.2c-6.3,0-11.5,5.2-11.5,11.5
		c0,6.3,5.2,11.5,11.5,11.5c6.3,0,11.5-5.2,11.5-11.5C-292.8,59.4-298,54.2-304.3,54.2L-304.3,54.2z M-286.7,268.8
		c0,7.4-3.7,11.1-11.1,11.1h-209.2c-7.4,0-11.1-3.7-11.1-11.1V59.6c0-7.4,3.7-11.1,11.1-11.1h209.2c7.4,0,11.1,3.7,11.1,11.1V268.8z
		 M-298,39.4h-209.2c-12.6,0-20.4,7.8-20.4,20.4V269c0,12.6,7.8,20.4,20.4,20.4H-298c12.6,0,20.4-7.8,20.4-20.4V59.9
		C-277.5,47.3-285.4,39.4-298,39.4L-298,39.4z M-500.6,72c-3.5,0-6.3-2.8-6.3-6.3c0-3.5,2.8-6.3,6.3-6.3s6.3,2.8,6.3,6.3
		C-494.3,69.2-497.1,72-500.6,72L-500.6,72z M-500.6,54.2c-6.3,0-11.5,5.2-11.5,11.5c0,6.3,5.2,11.5,11.5,11.5s11.5-5.2,11.5-11.5
		C-489.1,59.4-494.3,54.2-500.6,54.2L-500.6,54.2z M-500.6,269.3c-3.5,0-6.3-2.8-6.3-6.3c0-3.5,2.8-6.3,6.3-6.3s6.3,2.8,6.3,6.3
		C-494.3,266.4-497.1,269.3-500.6,269.3L-500.6,269.3z M-500.6,251.4c-6.3,0-11.5,5.2-11.5,11.5c0,6.3,5.2,11.5,11.5,11.5
		s11.5-5.2,11.5-11.5C-489.1,256.7-494.3,251.4-500.6,251.4L-500.6,251.4z"/>
</g>
</svg>
