<?xml version="1.0" encoding="utf-8"?>
<!-- Generator: Adobe Illustrator 19.0.0, SVG Export Plug-In . SVG Version: 6.00 Build 0)  -->
<svg version="1.1" id="Capa_1" xmlns="http://www.w3.org/2000/svg" xmlns:xlink="http://www.w3.org/1999/xlink" x="0px" y="0px"
	 viewBox="-345 1 192 250" style="enable-background:new -345 1 192 250;" xml:space="preserve">
<style type="text/css">
	.st0{fill:#E9E9E0;}
	.st1{fill:#D9D7CA;}
	.st2{fill:#0096E6;}
	.st3{fill:#FFFFFF;}
</style>
<g>
	<path class="st0" d="M-208.9,1h-129.6c-3.6,0-6.5,2.9-6.5,8.6v236.9c0,1.5,2.9,4.5,6.5,4.5h178.9c3.6,0,6.5-2.9,6.5-4.5V58.9
		c0-3.1-0.4-4.1-1.1-4.8l-51.9-51.9C-206.8,1.4-207.8,1-208.9,1z"/>
	<polygon class="st1" points="-206.6,1.7 -206.6,54.6 -153.7,54.6 	"/>
	<path class="st2" d="M-159.5,251h-178.9c-3.6,0-6.5-2.9-6.5-6.5v-69.4h192v69.4C-153,248.1-155.9,251-159.5,251z"/>
	<g>
		<path class="st3" d="M-268.7,233c-1.7,1.6-3.6,2.8-5.7,3.7s-4.4,1.2-6.8,1.2c-2.7,0-5.2-0.5-7.4-1.5c-2.3-1-4.2-2.4-5.9-4.3
			c-1.7-1.9-3-4.3-4-7.2c-1-2.9-1.4-6.2-1.4-10s0.5-7.1,1.4-10c1-2.9,2.3-5.3,4-7.2s3.7-3.4,6-4.4s4.7-1.5,7.4-1.5
			c2.4,0,4.7,0.4,6.8,1.2c2.1,0.8,4,2,5.7,3.7l-5.1,4.5c-1-1.2-2.1-2-3.4-2.6c-1.2-0.5-2.5-0.8-3.9-0.8c-1.5,0-2.9,0.3-4.3,0.9
			c-1.4,0.6-2.6,1.5-3.7,2.9s-1.9,3.1-2.5,5.3c-0.6,2.2-0.9,4.8-1,7.9c0,3.1,0.4,5.7,0.9,7.8c0.6,2.2,1.4,3.9,2.4,5.3
			c1,1.4,2.2,2.4,3.5,3c1.3,0.6,2.7,0.9,4.2,0.9s2.8-0.3,4.1-0.8c1.3-0.5,2.5-1.4,3.5-2.6L-268.7,233z"/>
		<path class="st3" d="M-232.8,225.3c0,1.6-0.3,3.2-1,4.7c-0.7,1.5-1.6,2.9-2.8,4c-1.2,1.2-2.7,2.1-4.5,2.8c-1.8,0.7-3.8,1-6.1,1
			c-1,0-2-0.1-3-0.2c-1-0.1-2.1-0.3-3.1-0.5c-1.1-0.2-2.1-0.6-3-1s-1.8-0.9-2.5-1.6l1.3-5.3c0.6,0.3,1.3,0.6,2.2,0.9
			c0.9,0.3,1.8,0.6,2.7,0.9c0.9,0.3,1.9,0.5,2.8,0.6s1.8,0.2,2.6,0.2c2.5,0,4.4-0.6,5.7-1.7s2-2.9,2-5.2c0-1.4-0.5-2.6-1.4-3.5
			c-0.9-1-2.1-1.9-3.5-2.7s-2.9-1.6-4.5-2.4s-3.2-1.7-4.6-2.8c-1.4-1.1-2.6-2.3-3.5-3.8s-1.4-3.3-1.4-5.5c0-2,0.4-3.8,1.1-5.3
			c0.7-1.5,1.7-2.9,3-3.9s2.7-1.9,4.3-2.5c1.6-0.6,3.4-0.9,5.2-0.9c1.9,0,3.8,0.2,5.7,0.5c1.9,0.3,3.5,0.9,4.6,1.7
			c-0.2,0.5-0.5,1.1-0.9,1.7s-0.6,1.2-0.9,1.8c-0.3,0.5-0.5,1-0.7,1.4s-0.3,0.6-0.4,0.6c-0.2-0.1-0.5-0.3-0.8-0.5
			c-0.3-0.2-0.7-0.4-1.3-0.6c-0.6-0.2-1.3-0.3-2.3-0.4s-2.1-0.1-3.6,0.1c-0.8,0.1-1.6,0.3-2.3,0.7c-0.7,0.4-1.4,0.9-2,1.4
			c-0.6,0.6-1,1.2-1.3,1.9c-0.3,0.7-0.5,1.4-0.5,2c0,1.6,0.5,2.9,1.4,3.9c0.9,1,2.1,1.9,3.5,2.6c1.4,0.8,2.9,1.5,4.5,2.2
			c1.6,0.7,3.1,1.6,4.5,2.6c1.4,1,2.6,2.3,3.5,3.8C-233.3,220.9-232.8,222.9-232.8,225.3z"/>
		<path class="st3" d="M-199.7,225.3c0,1.6-0.3,3.2-1,4.7c-0.7,1.5-1.6,2.9-2.8,4c-1.2,1.2-2.7,2.1-4.5,2.8c-1.8,0.7-3.8,1-6.1,1
			c-1,0-2-0.1-3-0.2c-1-0.1-2.1-0.3-3.1-0.5s-2.1-0.6-3-1c-1-0.4-1.8-0.9-2.5-1.6l1.3-5.3c0.6,0.3,1.3,0.6,2.2,0.9s1.8,0.6,2.7,0.9
			c0.9,0.3,1.9,0.5,2.8,0.6s1.8,0.2,2.6,0.2c2.5,0,4.4-0.6,5.7-1.7c1.3-1.2,2-2.9,2-5.2c0-1.4-0.5-2.6-1.4-3.5
			c-0.9-1-2.1-1.9-3.5-2.7s-2.9-1.6-4.5-2.4c-1.6-0.8-3.2-1.7-4.6-2.8c-1.4-1.1-2.6-2.3-3.5-3.8c-0.9-1.5-1.4-3.3-1.4-5.5
			c0-2,0.4-3.8,1.1-5.3c0.7-1.5,1.7-2.9,3-3.9c1.2-1.1,2.7-1.9,4.3-2.5c1.6-0.6,3.4-0.9,5.2-0.9c1.9,0,3.8,0.2,5.7,0.5
			c1.9,0.3,3.5,0.9,4.6,1.7c-0.2,0.5-0.5,1.1-0.9,1.7s-0.6,1.2-0.9,1.8c-0.3,0.5-0.5,1-0.7,1.4c-0.2,0.4-0.3,0.6-0.4,0.6
			c-0.2-0.1-0.5-0.3-0.8-0.5c-0.3-0.2-0.7-0.4-1.3-0.6c-0.6-0.2-1.3-0.3-2.3-0.4s-2.1-0.1-3.6,0.1c-0.8,0.1-1.6,0.3-2.3,0.7
			c-0.7,0.4-1.4,0.9-2,1.4c-0.6,0.6-1,1.2-1.3,1.9c-0.3,0.7-0.5,1.4-0.5,2c0,1.6,0.5,2.9,1.4,3.9c0.9,1,2.1,1.9,3.5,2.6
			c1.4,0.8,2.9,1.5,4.5,2.2s3.1,1.6,4.5,2.6c1.4,1,2.6,2.3,3.5,3.8C-200.2,220.9-199.7,222.9-199.7,225.3z"/>
	</g>
	<g>
		<path class="st2" d="M-286.9,85.8V68c0-2.5,2-4.5,4.5-4.5c2.5,0,4.5-2,4.5-4.5c0-2.5-2-4.5-4.5-4.5c-7.4,0-13.4,6-13.4,13.4v17.9
			c0,4.9-4,8.9-8.9,8.9c-2.5,0-4.5,2-4.5,4.5s2,4.5,4.5,4.5c4.9,0,8.9,4,8.9,8.9v17.9c0,7.4,6,13.4,13.4,13.4c2.5,0,4.5-2,4.5-4.5
			c0-2.5-2-4.5-4.5-4.5c-2.5,0-4.5-2-4.5-4.5v-17.9c0-5.4-2.4-10.1-6.2-13.4C-289.4,95.9-286.9,91.2-286.9,85.8z"/>
		<path class="st2" d="M-197.7,94.8c-4.9,0-8.9-4-8.9-8.9V68c0-7.4-6-13.4-13.4-13.4c-2.5,0-4.5,2-4.5,4.5c0,2.5,2,4.5,4.5,4.5
			c2.5,0,4.5,2,4.5,4.5v17.9c0,5.4,2.4,10.1,6.2,13.4c-3.8,3.3-6.2,8-6.2,13.4v17.9c0,2.5-2,4.5-4.5,4.5c-2.5,0-4.5,2-4.5,4.5
			c0,2.5,2,4.5,4.5,4.5c7.4,0,13.4-6,13.4-13.4v-17.9c0-4.9,4-8.9,8.9-8.9c2.5,0,4.5-2,4.5-4.5S-195.2,94.8-197.7,94.8z"/>
	</g>
</g>
</svg>
