<?xml version="1.0" encoding="utf-8"?>
<!-- Generator: Adobe Illustrator 19.0.0, SVG Export Plug-In . SVG Version: 6.00 Build 0)  -->
<svg version="1.1" id="Lager_1" xmlns="http://www.w3.org/2000/svg" xmlns:xlink="http://www.w3.org/1999/xlink" x="0px" y="0px"
	 viewBox="-302 1 250 250" style="enable-background:new -302 1 250 250;" xml:space="preserve">
<style type="text/css">
	.st0{fill:#F0DB4F;}
	.st1{fill:#323330;}
</style>
<g>
	<g>
		<g>
			<circle class="st0" cx="-177" cy="126" r="125"/>
		</g>
	</g>
	<g id="Layer_1_1_">
		<g>
			<g>
				<path class="st1" d="M-216,77.5h21.8v61.3c0,27.5-13.3,37.3-34.3,37.3c-5.3,0-11.8-0.8-16-2.3l2.5-17.8c3,1,7,1.8,11.3,1.8
					c9.3,0,15-4.3,15-19L-216,77.5L-216,77.5z"/>
				<path class="st1" d="M-175,152c5.8,3,15,6,24.3,6c10,0,15.3-4.2,15.3-10.8c0-6-4.5-9.5-16.3-13.5c-16-5.8-26.8-14.8-26.8-29
					c0-16.3,14-28.8,36.8-28.8c11,0,19,2.3,24.8,5l-5,17.5c-3.8-1.8-10.8-4.5-20-4.5c-9.5,0-14,4.5-14,9.3c0,6.3,5.3,9,18,13.8
					c17,6.3,25,15.3,25,29c0,16.3-12.3,30-39,30c-11,0-22-3-27.5-6L-175,152z"/>
			</g>
		</g>
	</g>
</g>
</svg>
