<?xml version="1.0" encoding="utf-8"?>
<!-- Generator: Adobe Illustrator 19.0.0, SVG Export Plug-In . SVG Version: 6.00 Build 0)  -->
<svg version="1.1" id="Layer_1" xmlns="http://www.w3.org/2000/svg" xmlns:xlink="http://www.w3.org/1999/xlink" x="0px" y="0px"
	 viewBox="-311.8 -0.4 177.1 250.5" style="enable-background:new -311.8 -0.4 177.1 250.5;" xml:space="preserve">
<style type="text/css">
	.st0{fill:#FFFFFF;stroke:#000000;stroke-miterlimit:10;}
	.st1{fill:#1572B6;}
	.st2{fill:#33A9DC;}
	.st3{fill:#FFFFFF;}
	.st4{fill:#EBEBEB;}
</style>
<title>Slice 1</title>
<description>CSS SVG Logo source http://jaspreetchahal.org</description>
<g id="Page_1">
	<g id="Layer_1_1_">
		<path id="Shape" class="st0" d="M-173,9.3h-14.7l15.3,16.6v7.9h-31.5v-9.2h15.3L-203.9,8V0.1h30.9V9.3L-173,9.3z M-210.1,9.3
			h-14.7l15.3,16.6v7.9H-241v-9.2h15.3L-241,8V0.1h30.9V9.3L-210.1,9.3z M-246.9,9.7h-15.9v14.5h15.9v9.6H-274V0.1h27.1V9.7
			L-246.9,9.7z"/>
		<path id="Shape_1_" class="st1" d="M-295.6,230l-16.2-180.8h177.1L-150.8,230l-72.5,20.1L-295.6,230z"/>
		<path id="Shape_2_" class="st2" d="M-223.2,234.7l58.6-16.2L-150.8,64h-72.4V234.7z"/>
		<g id="Group" transform="translate(55.000000, 142.000000)">
			<path id="Shape_3_" class="st3" d="M-278.2-12.5h29.3l2-22.7h-31.4v-22.2h0.1h55.5l-0.5,5.9l-5.4,61.1h-49.6
				C-278.2,9.6-278.2-12.5-278.2-12.5z"/>
			<path id="Shape_4_" class="st4" d="M-278.1,45.1L-278.1,45.1l-24.8-6.6l-1.6-17.7h-12h-10.3l3.1,34.8l45.4,12.6h0.1V45.1H-278.1z
				"/>
			<path id="Shape_5_" class="st3" d="M-250.7,8.7l-2.7,29.7l-24.7,6.7v23.1l45.5-12.6l0.3-3.7l3.9-43.1h-22.3V8.7z"/>
			<path id="Shape_6_" class="st4" d="M-278.1-57.4v13.8v8.3v0.1h-53.5h-0.1l-0.4-5l-1-11.2l-0.5-5.9L-278.1-57.4L-278.1-57.4z"/>
			<path id="Shape_7_" class="st4" d="M-278.2-12.5V1.3v8.3v0.1h-24.3h-0.1l-0.4-5l-1-11.2l-0.5-5.9h26.3V-12.5z"/>
		</g>
	</g>
</g>
</svg>
