<?xml version="1.0" encoding="utf-8"?>
<!-- Generator: Adobe Illustrator 19.0.0, SVG Export Plug-In . SVG Version: 6.00 Build 0)  -->
<svg version="1.1"
	 id="svg3430" xmlns:dc="http://purl.org/dc/elements/1.1/" xmlns:svg="http://www.w3.org/2000/svg" xmlns:rdf="http://www.w3.org/1999/02/22-rdf-syntax-ns#" xmlns:cc="http://creativecommons.org/ns#"
	 xmlns="http://www.w3.org/2000/svg" xmlns:xlink="http://www.w3.org/1999/xlink" x="0px" y="0px" viewBox="183.4 0.2 444.4 250"
	 style="enable-background:new 183.4 0.2 444.4 250;" xml:space="preserve">
<style type="text/css">
	.st0{fill:none;}
	.st1{fill:url(#path3462_1_);}
	.st2{fill:#777BB3;}
	.st3{fill:#FFFFFF;}
</style>
<path class="st0" d="M192.3,125.2c0,62,95.5,112.2,213.3,112.2l0,0c117.8,0,213.3-50.2,213.3-112.2l0,0c0-62-95.5-112.2-213.3-112.2
	l0,0C287.8,13,192.3,63.2,192.3,125.2"/>
<radialGradient id="path3462_1_" cx="100.0063" cy="250.4507" r="0.6173" gradientTransform="matrix(453.8224 0 0 -453.8224 -45064.7344 113712.5703)" gradientUnits="userSpaceOnUse">
	<stop  offset="0" style="stop-color:#AEB2D5"/>
	<stop  offset="0.3" style="stop-color:#AEB2D5"/>
	<stop  offset="0.75" style="stop-color:#484C89"/>
	<stop  offset="1" style="stop-color:#484C89"/>
</radialGradient>
<path id="path3462" class="st1" d="M192.3,125.2c0,62,95.5,112.2,213.3,112.2l0,0c117.8,0,213.3-50.2,213.3-112.2l0,0
	c0-62-95.5-112.2-213.3-112.2l0,0C287.8,13,192.3,63.2,192.3,125.2"/>
<rect x="183.4" y="0.2" class="st0" width="444.4" height="250"/>
<path id="path3474" class="st2" d="M405.6,229.1c113.2,0,205-46.5,205-103.9c0-57.4-91.8-103.9-205-103.9s-205,46.5-205,103.9
	C200.6,182.6,292.4,229.1,405.6,229.1"/>
<rect x="183.4" y="0.2" class="st0" width="444.4" height="250"/>
<path id="path3486" d="M308.2,138.1c9.3,0,16.3-1.7,20.7-5.1c4.4-3.3,7.4-9.2,8.9-17.2c1.5-7.6,0.9-12.8-1.7-15.7
	c-2.6-2.9-8.3-4.4-16.9-4.4h-14.9l-8.2,42.4H308.2z M259.5,190.4c-0.7,0-1.3-0.3-1.8-0.8c-0.4-0.5-0.6-1.2-0.5-1.9l21.9-112.5
	c0.2-1.1,1.2-1.9,2.3-1.9h47.1c14.8,0,25.8,4,32.8,11.9c7,8,9.1,19.1,6.4,33.1c-1.1,5.7-3,11-5.7,15.7c-2.7,4.7-6.2,9.1-10.4,13.1
	c-5.1,4.8-10.9,8.2-17.2,10.3c-6.2,2-14.1,3-23.6,3h-19.1l-5.4,28c-0.2,1.1-1.2,1.9-2.3,1.9H259.5z"/>
<path id="path3490" class="st3" d="M306.2,98h13c10.4,0,14,2.3,15.2,3.6c2,2.2,2.4,7,1.1,13.7c-1.5,7.5-4.2,12.9-8.1,15.9
	c-4,3.1-10.5,4.6-19.2,4.6h-9.3L306.2,98z M328.5,71h-47.1c-2.2,0-4.1,1.6-4.5,3.7L255,187.2c-0.3,1.4,0.1,2.8,1,3.8
	c0.9,1.1,2.2,1.7,3.6,1.7H284c2.2,0,4.1-1.6,4.5-3.7l5.1-26.2h17.2c9.7,0,17.9-1.1,24.3-3.1c6.6-2.1,12.7-5.8,18-10.8
	c4.4-4.1,8.1-8.7,10.9-13.6c2.8-5,4.8-10.5,5.9-16.4c2.9-14.7,0.5-26.5-6.9-35.1C355.6,75.2,344,71,328.5,71 M293.3,140.4h14.9
	c9.9,0,17.2-1.9,22.1-5.6c4.8-3.7,8.1-9.9,9.8-18.6c1.6-8.4,0.9-14.3-2.2-17.7c-3.1-3.4-9.3-5.2-18.6-5.2h-16.8L293.3,140.4
	 M328.5,75.6c14.2,0,24.5,3.7,31,11.2c6.5,7.4,8.5,17.8,5.9,31.2c-1.1,5.5-2.9,10.5-5.4,15.1c-2.5,4.6-5.9,8.7-10,12.5
	c-4.9,4.6-10.3,7.8-16.3,9.8c-6,1.9-13.6,2.9-22.9,2.9h-21L284,188h-24.5l21.9-112.5H328.5"/>
<path id="path3494" d="M423.8,160.5c-0.7,0-1.3-0.3-1.8-0.8c-0.4-0.5-0.6-1.2-0.5-1.9l9.7-49.8c0.9-4.7,0.7-8.1-0.6-9.6
	c-0.8-0.9-3.3-2.3-10.5-2.3h-17.5l-12.2,62.6c-0.2,1.1-1.2,1.9-2.3,1.9h-24.3c-0.7,0-1.3-0.3-1.8-0.8c-0.4-0.5-0.6-1.2-0.5-1.9
	l21.9-112.5c0.2-1.1,1.2-1.9,2.3-1.9H410c0.7,0,1.3,0.3,1.8,0.8c0.4,0.5,0.6,1.2,0.5,1.9L407,73.3h18.8c14.4,0,24.1,2.5,29.8,7.7
	c5.8,5.3,7.6,13.8,5.4,25.2l-10.2,52.3c-0.2,1.1-1.2,1.9-2.3,1.9H423.8z"/>
<path id="path3498" class="st3" d="M410,41.1h-24.3c-2.2,0-4.1,1.6-4.5,3.7l-21.9,112.5c-0.3,1.4,0.1,2.8,1,3.8s2.2,1.7,3.6,1.7
	h24.3c2.2,0,4.1-1.6,4.5-3.7l11.8-60.7h15.6c7.2,0,8.7,1.5,8.8,1.6c0.4,0.5,1,2.7,0.1,7.5l-9.7,49.8c-0.3,1.4,0.1,2.8,1,3.8
	s2.2,1.7,3.6,1.7h24.7c2.2,0,4.1-1.6,4.5-3.7l10.2-52.3c2.4-12.3,0.3-21.5-6.1-27.4c-6.1-5.6-16.4-8.3-31.3-8.3h-16l4.7-24.4
	c0.3-1.4-0.1-2.8-1-3.8C412.7,41.7,411.4,41.1,410,41.1 M410,45.7l-5.8,29.9h21.7c13.6,0,23,2.4,28.2,7.1c5.2,4.8,6.7,12.5,4.7,23.1
	l-10.2,52.3h-24.7l9.7-49.8c1.1-5.7,0.7-9.5-1.2-11.6c-1.9-2.1-6-3.1-12.2-3.1h-19.4l-12.5,64.4h-24.3l21.9-112.5H410"/>
<path id="path3502" d="M499.4,138.1c9.3,0,16.3-1.7,20.7-5.1c4.4-3.3,7.4-9.2,8.9-17.2c1.5-7.6,0.9-12.8-1.7-15.7
	c-2.6-2.9-8.3-4.4-16.9-4.4h-14.9l-8.2,42.4H499.4z M450.7,190.4c-0.7,0-1.3-0.3-1.8-0.8c-0.4-0.5-0.6-1.2-0.5-1.9l21.9-112.5
	c0.2-1.1,1.2-1.9,2.3-1.9h47.1c14.8,0,25.8,4,32.8,11.9c7,8,9.1,19.1,6.4,33.1c-1.1,5.7-3,11-5.7,15.7c-2.7,4.7-6.2,9.1-10.4,13.1
	c-5.1,4.8-10.9,8.2-17.2,10.3c-6.2,2-14.1,3-23.6,3h-19.1l-5.4,28c-0.2,1.1-1.2,1.9-2.3,1.9H450.7z"/>
<path id="path3506" class="st3" d="M497.5,98h13c10.4,0,14,2.3,15.2,3.6c2,2.2,2.4,7,1.1,13.7c-1.5,7.5-4.2,12.9-8.1,15.9
	c-4,3.1-10.5,4.6-19.2,4.6h-9.3L497.5,98z M519.7,71h-47.1c-2.2,0-4.1,1.6-4.5,3.7l-21.9,112.5c-0.3,1.4,0.1,2.8,1,3.8
	c0.9,1.1,2.2,1.7,3.6,1.7h24.5c2.2,0,4.1-1.6,4.5-3.7l5.1-26.2H502c9.7,0,17.9-1.1,24.3-3.1c6.6-2.1,12.7-5.8,18-10.8
	c4.4-4.1,8.1-8.7,10.9-13.6c2.8-5,4.8-10.5,5.9-16.4c2.9-14.7,0.5-26.5-6.9-35.1C546.8,75.2,535.2,71,519.7,71 M484.5,140.4h14.9
	c9.9,0,17.2-1.9,22.1-5.6c4.8-3.7,8.1-9.9,9.8-18.6c1.6-8.4,0.9-14.3-2.2-17.7c-3.1-3.4-9.3-5.2-18.6-5.2h-16.8L484.5,140.4
	 M519.7,75.6c14.2,0,24.5,3.7,31,11.2s8.5,17.8,5.9,31.2c-1.1,5.5-2.9,10.5-5.4,15.1c-2.5,4.6-5.9,8.7-10,12.5
	c-4.9,4.6-10.3,7.8-16.3,9.8c-6,1.9-13.6,2.9-22.9,2.9h-21l-5.8,29.9h-24.5l21.9-112.5H519.7"/>
</svg>
