<?xml version="1.0" encoding="utf-8"?>
<!-- Generator: Adobe Illustrator 19.0.0, SVG Export Plug-In . SVG Version: 6.00 Build 0)  -->
<svg version="1.1"
	 id="svg3026" xmlns:dc="http://purl.org/dc/elements/1.1/" xmlns:cc="http://creativecommons.org/ns#" xmlns:rdf="http://www.w3.org/1999/02/22-rdf-syntax-ns#" xmlns:svg="http://www.w3.org/2000/svg" xmlns:inkscape="http://www.inkscape.org/namespaces/inkscape" xmlns:sodipodi="http://sodipodi.sourceforge.net/DTD/sodipodi-0.dtd" sodipodi:docname="Neutral.svg" inkscape:version="0.48.4 r9939"
	 xmlns="http://www.w3.org/2000/svg" xmlns:xlink="http://www.w3.org/1999/xlink" x="0px" y="0px" viewBox="-182 22 20 20"
	 style="enable-background:new -182 22 20 20;" xml:space="preserve">
<style type="text/css">
	.st0{fill:#C1C1C1;}
	.st1{display:none;}
	.st2{display:inline;}
</style>
<sodipodi:namedview  inkscape:cy="6.8249439" inkscape:cx="11.841239" inkscape:zoom="26.304372" showgrid="true" guidetolerance="10" gridtolerance="10" objecttolerance="10" borderopacity="1" bordercolor="#666666" pagecolor="#ffffff" id="namedview3034" inkscape:current-layer="g3028" inkscape:window-maximized="1" inkscape:window-height="961" inkscape:window-y="-8" inkscape:window-width="1280" inkscape:pageshadow="2" inkscape:window-x="-8" inkscape:pageopacity="0">
	<inkscape:grid  type="xygrid" id="grid3040"></inkscape:grid>
</sodipodi:namedview>
<path class="st0" d="M-162.4,29.3c-0.2-0.8-0.6-1.6-1-2.4c-0.4-0.7-1-1.4-1.6-2c-0.6-0.6-1.3-1.1-2-1.6c-0.7-0.4-1.5-0.8-2.4-1
	c-0.8-0.2-1.7-0.4-2.6-0.4c-0.9,0-1.8,0.1-2.6,0.4c-0.8,0.2-1.6,0.6-2.4,1c-0.7,0.4-1.4,1-2,1.6c-0.6,0.6-1.1,1.3-1.6,2
	s-0.8,1.5-1,2.4c-0.2,0.8-0.4,1.7-0.4,2.6c0,0.9,0.1,1.8,0.4,2.6c0.2,0.8,0.6,1.6,1,2.4s1,1.4,1.6,2c0.6,0.6,1.3,1.1,2,1.6
	s1.5,0.8,2.4,1c0.8,0.2,1.7,0.4,2.6,0.4c0.9,0,1.8-0.1,2.6-0.4c0.8-0.2,1.6-0.6,2.4-1s1.4-1,2-1.6c0.6-0.6,1.1-1.3,1.6-2
	c0.4-0.7,0.8-1.5,1-2.4c0.2-0.8,0.4-1.7,0.4-2.6C-162,31.1-162.1,30.2-162.4,29.3z M-164,34.2c-0.2,0.7-0.5,1.4-0.8,2
	c-0.4,0.6-0.8,1.2-1.3,1.7s-1.1,0.9-1.7,1.3c-0.6,0.4-1.3,0.6-2,0.8c-0.7,0.2-1.4,0.3-2.2,0.3s-1.5-0.1-2.2-0.3
	c-0.7-0.2-1.4-0.5-2-0.8c-0.6-0.4-1.2-0.8-1.7-1.3s-0.9-1.1-1.3-1.7c-0.4-0.6-0.6-1.3-0.8-2c-0.2-0.7-0.3-1.4-0.3-2.2
	s0.1-1.5,0.3-2.2c0.2-0.7,0.5-1.4,0.8-2c0.4-0.6,0.8-1.2,1.3-1.7s1.1-0.9,1.7-1.3c0.6-0.4,1.3-0.6,2-0.8c0.7-0.2,1.4-0.3,2.2-0.3
	s1.5,0.1,2.2,0.3s1.4,0.5,2,0.8c0.6,0.4,1.2,0.8,1.7,1.3s0.9,1.1,1.3,1.7c0.4,0.6,0.6,1.3,0.8,2s0.3,1.4,0.3,2.2
	S-163.8,33.5-164,34.2z"/>
<g class="st1">
	<path class="st2" d="M-173.8,30.1v-4.5h3.6v4.5h4.5v3.3h-4.5V38h-3.6v-4.5h-4.4v-3.3H-173.8z"/>
</g>
<g>
	<path class="st0" d="M-172.8,35.8v-3.4h-3.4v-1.7h3.4v-3.4h1.6v3.4h3.4v1.7h-3.4v3.4H-172.8z"/>
</g>
</svg>
