<?xml version="1.0" encoding="utf-8"?>
<!-- Generator: Adobe Illustrator 19.0.0, SVG Export Plug-In . SVG Version: 6.00 Build 0)  -->
<svg version="1.1" id="Layer_1" xmlns="http://www.w3.org/2000/svg" xmlns:xlink="http://www.w3.org/1999/xlink" x="0px" y="0px"
	 viewBox="91 -201 464 464" style="enable-background:new 91 -201 464 464;" xml:space="preserve">
<style type="text/css">
	.st0{fill:#00739A;}
</style>
<path class="st0" d="M520.5,31.7c0-20.5-3.2-40.3-8.9-58.8l-88.2,228.8C481.5,167.3,520.5,104.1,520.5,31.7L520.5,31.7z"/>
<path class="st0" d="M260.6,218.9c19.6,6.6,40.6,10.1,62.5,10.1c22.9,0,44.8-3.9,65.2-11L328.1,61.8L260.6,218.9L260.6,218.9z"/>
<path class="st0" d="M133.8-24.1c-5.2,17.7-8.1,36.4-8.1,55.8c0,74,40.7,138.4,100.9,172.2L134.4-22.9L133.8-24.1L133.8-24.1z"/>
<path class="st0" d="M234.4-36.8l-8.5-0.4c-18.5-0.3-16.4,18.9-16.4,18.9l65.6,164.6l44.1-105.4l-24.6-62.7
	c-9.9-16.6-33.9-16.4-33.9-16.4V-47h138l-0.2,9.7l-14.4,0.9c-17.9,0-14.3,17-14.3,17l59.9,159.9l17.2-44.3
	c30.4-69,11.7-120.1,11.7-120.1c-30.5-62.7,8-71.7,8-71.7c2.4-0.3,4.7-0.5,7-0.6c-36.2-42.5-90.1-69.5-150.3-69.5
	c-81.4,0-151.3,49.3-181.5,119.7l92.4-1L234.4-36.8L234.4-36.8z"/>
<path class="st0" d="M544.8,31c0,122.3-99.5,221.8-221.8,221.8C200.7,252.9,101.2,153.3,101.2,31s99.5-221.8,221.9-221.8
	C445.3-190.8,544.8-91.3,544.8,31z M323-201C195.1-201,91-96.9,91,31s104.1,232,232,232c128,0,232-104,232-232
	C555-96.9,451-201,323-201z"/>
</svg>
