<?xml version="1.0" encoding="utf-8"?>
<!-- Generator: Adobe Illustrator 16.0.0, SVG Export Plug-In . SVG Version: 6.00 Build 0)  -->
<!DOCTYPE svg PUBLIC "-//W3C//DTD SVG 1.1//EN" "http://www.w3.org/Graphics/SVG/1.1/DTD/svg11.dtd">
<svg version="1.1" id="Layer_1" xmlns="http://www.w3.org/2000/svg" xmlns:xlink="http://www.w3.org/1999/xlink" x="0px" y="0px"
	 width="56.497px" height="80.179px" viewBox="0 0 56.497 80.179" enable-background="new 0 0 56.497 80.179" xml:space="preserve">
<g>
	<polygon fill="#E44D26" points="5.142,73.772 0,16 56.497,16 51.35,73.765 28.214,80.179 	"/>
	<polygon fill="#F16529" points="28,75.379 46.819,70.235 51.342,21 28,21 	"/>
	<polygon fill="#EBEBEB" points="28,42 18.89,42 18.243,34 28,34 28,29 28.224,29 10.513,29 10.683,30.203 12.421,49 28,49 	"/>
	<polygon fill="#EBEBEB" points="28,60.68 28.094,60.688 20.278,58.601 19.836,53 16.009,53 12.737,53 13.728,64.065 28.092,68.068 
		28,68.039 	"/>
	<path d="M6,0h4v3h2V0h4v11h-4V7h-2v4H6V0L6,0z"/>
	<path d="M20.46,3H18V0h10v3h-3v8h-5V4.102L20.46,3z"/>
	<path d="M30,0h2.543l2.305,3.778L37.151,0H42v11h-4V5.959L34.848,9h-0.062L33,5.959V11h-3V0z"/>
	<path d="M43,0h4v7h5v4h-9V0z"/>
	<polygon fill="#FFFFFF" points="28,42 28,49 36.934,49 35.999,58.366 28,60.686 28,68.045 42.612,64.027 42.775,62.832 
		44.464,44.056 44.665,42 42.758,42 	"/>
	<polygon fill="#FFFFFF" points="28,29 28,32.389 28,35.051 28,34 45.286,34 45.286,34 45.309,34 45.45,32.944 45.772,30.128 
		45.942,29 	"/>
</g>
</svg>
